<svg clip-rule="evenodd" fill-rule="evenodd" stroke-linejoin="round" stroke-miterlimit="2" viewBox="0 0 560 400" xmlns="http://www.w3.org/2000/svg"><path d="m5.02.284v2.093h-2.964v1.832c0 3.096 1.94 5.611 5.027 5.611s5.287-2.515 5.287-5.61v-1.833h-2.93v-2.093h5.02v3.926c.016 2.053-.856 4.148-2.291 5.602-1.147 1.16-2.2 1.741-3.784 2.003v5.983c0 4.697 4.12 8.104 9.797 8.104 5.533 0 9.395-3.332 9.395-8.104v-5.983h2.328v5.983c-.001 5.911-4.93 10.202-11.725 10.202-6.913-.002-12.126-4.387-12.126-10.203v-5.952c-3.791-.504-6.054-3.677-6.054-7.635v-3.926zm60.057 8.096c3.43 0 5.728 1.926 5.728 4.958v8.486c0 1.143.57 1.227 1.222 1.232h.382v1.672c-.348.221-.88.348-1.604.348-.788 0-1.322-.285-1.668-.853-.158-.282-.283-.632-.346-1.01-1.134 1.36-2.926 2.02-5.412 2.02-3.4 0-5.73-1.89-5.73-4.765 0-3.25 2.202-4.797 6.61-5.144 1.637-.128 2.737-.314 3.336-.6.596-.284.882-.85.882-1.735 0-1.293-1.104-2.429-3.4-2.429-1.731 0-3.147.758-4.28 2.241l-1.604-1.326c1.416-2.05 3.366-3.095 5.884-3.095zm12.556-5.614v17.83c0 1.766.502 2.46 1.982 2.46.44 0 .816-.032 1.131-.127v2.18c-.345.094-.72.124-1.131.124-1.04 0-1.796-.157-2.77-.692-.974-.538-1.54-1.862-1.54-3.787v-17.988zm12.145 5.615c2.36 0 4.343.822 5.982 2.432 1.635 1.61 2.453 3.597 2.453 5.996 0 2.398-.818 4.417-2.453 6.027-1.64 1.61-3.622 2.397-5.982 2.397s-4.342-.788-5.978-2.397c-1.636-1.61-2.455-3.63-2.455-6.027 0-2.4.819-4.386 2.455-5.996s3.618-2.432 5.978-2.432zm26.806-5.615v21.994h-2.327v-2.366c-.914 1.609-2.77 2.84-5.633 2.84-2.233 0-4.155-.79-5.697-2.398-1.541-1.61-2.327-3.629-2.327-6.027 0-2.4.786-4.385 2.327-5.996 1.542-1.61 3.464-2.433 5.697-2.433 2.862 0 4.719 1.234 5.633 2.842v-8.456zm11.226 5.615c2.36 0 4.34.822 5.978 2.432 1.637 1.61 2.454 3.597 2.454 5.996 0 2.398-.817 4.417-2.454 6.027-1.638 1.61-3.618 2.397-5.978 2.397s-4.343-.788-5.98-2.397c-1.636-1.61-2.455-3.63-2.455-6.027 0-2.4.82-4.386 2.455-5.996 1.637-1.61 3.62-2.432 5.98-2.432zm19.016 0c2.453 0 4.468.791 6.008 2.397l-1.414 1.646c-1.196-1.233-2.738-1.864-4.594-1.864-1.763 0-3.21.6-4.373 1.797-1.167 1.169-1.733 2.653-1.733 4.452 0 1.797.566 3.281 1.733 4.479 1.164 1.167 2.61 1.769 4.373 1.769 1.856 0 3.398-.634 4.594-1.863l1.414 1.642c-1.54 1.609-3.555 2.397-6.008 2.397-2.36 0-4.34-.788-5.98-2.397-1.635-1.61-2.453-3.629-2.453-6.027 0-2.4.818-4.385 2.453-5.996 1.64-1.61 3.62-2.433 5.98-2.433zm-102.544-5.616v8.772c.847-1.765 2.579-2.934 4.876-2.934 3.493 0 5.695 2.366 5.695 5.996v10.16h-2.329v-9.655c0-2.654-1.51-4.327-3.932-4.327-2.519 0-4.31 1.833-4.31 4.484v9.498h-2.33v-21.993h2.33zm24.194 13.788c-.441.475-1.826.79-4.125.977-2.894.256-4.373.948-4.373 2.873 0 1.674 1.385 2.653 3.652 2.653 3.113 0 4.846-1.42 4.846-3.66zm21.301-5.994c-1.762 0-3.209.6-4.373 1.797-1.165 1.169-1.73 2.653-1.73 4.452 0 1.797.565 3.283 1.73 4.479 1.164 1.167 2.611 1.768 4.373 1.768 1.763 0 3.211-.601 4.375-1.768 1.165-1.197 1.73-2.682 1.73-4.479 0-1.799-.565-3.283-1.73-4.452-1.164-1.196-2.612-1.797-4.375-1.797zm18.846 0c-1.636 0-2.991.6-4.092 1.797-1.068 1.169-1.605 2.653-1.605 4.452 0 1.797.537 3.281 1.605 4.479 1.101 1.167 2.456 1.769 4.092 1.769 1.696 0 3.113-.602 4.215-1.77 1.135-1.197 1.701-2.681 1.701-4.478 0-1.799-.566-3.283-1.701-4.452-1.102-1.196-2.519-1.797-4.215-1.797zm19.186 0c-1.764 0-3.21.6-4.374 1.797-1.166 1.169-1.73 2.653-1.73 4.452 0 1.797.564 3.282 1.73 4.479 1.164 1.167 2.61 1.768 4.374 1.768 1.762 0 3.21-.601 4.373-1.768 1.164-1.197 1.73-2.682 1.73-4.479 0-1.799-.566-3.283-1.73-4.452-1.163-1.196-2.611-1.797-4.373-1.797zm-98.993-10.559c2.488 0 4.517 2.033 4.517 4.53 0 2.512-2.029 4.555-4.517 4.555-2.491 0-4.517-2.043-4.517-4.555 0-2.497 2.026-4.53 4.517-4.53zm0 2.1c-1.35 0-2.448 1.102-2.448 2.456 0 1.35 1.098 2.452 2.448 2.452 1.346 0 2.446-1.112 2.446-2.48 0-1.34-1.1-2.428-2.446-2.428z" fill="#e0004d" transform="matrix(3.21429 0 0 3.21429 34.3739 155)"/></svg>